REM DIRINDEX 1\8,1\2\11,1\3\12,1\3\14,1\5\15,1\5\16,1\6\17,1\6\18,1\4\19,1\4\20,1\4\21,1\4\22,1\7\23,1\7\24,1\7\25,1\2\9\26,1\2\9\27,1\2\10\28,1\2\10\29,1\2\10\30,1\2\10\31,1\2\10\32,1\3\13\33,1\3\13\34,1\3\13\35
REM DIRNAME cjc123,folder01,folder02,folder03,folder04,folder05,folder06,folder07,folder08,folder09,folder10,folder11,folder12,folder13,folder14,folder15,folder16,folder17,folder18,folder19,folder20,folder21,folder22,folder23,folder24,folder25,folder26,folder27,folder28,folder29,folder30,folder31,folder32,folder33,folder34
TITLE ""
FILE "1-05 005_UNIT1_SET3.mp3" MP3
  TRACK 01 AUDIO
    TITLE "11:cjc123_0235"
    INDEX 01 00:00:00
  TRACK 02 AUDIO
    TITLE "0:"
    INDEX 01 00:02:47
  TRACK 03 AUDIO
    TITLE "28:cjc123_0236"
    INDEX 01 00:03:25
  TRACK 04 AUDIO
    TITLE "0:"
    INDEX 01 00:04:31
  TRACK 05 AUDIO
    TITLE "29:cjc123_0237"
    INDEX 01 00:04:52
  TRACK 06 AUDIO
    TITLE "0:"
    INDEX 01 00:06:26
  TRACK 07 AUDIO
    TITLE "30:cjc123_0238"
    INDEX 01 00:06:33
  TRACK 08 AUDIO
    TITLE "0:"
    INDEX 01 00:07:41
  TRACK 09 AUDIO
    TITLE "31:cjc123_0239"
    INDEX 01 00:08:13
  TRACK 10 AUDIO
    TITLE "0:"
    INDEX 01 00:11:23
  TRACK 11 AUDIO
    TITLE "32:cjc123_0240"
    INDEX 01 00:11:54
  TRACK 12 AUDIO
    TITLE "0:"
    INDEX 01 00:15:05
  TRACK 13 AUDIO
    TITLE "28:cjc123_0241"
    INDEX 01 00:15:34
  TRACK 14 AUDIO
    TITLE "0:"
    INDEX 01 00:16:20
  TRACK 15 AUDIO
    TITLE "29:cjc123_0242"
    INDEX 01 00:16:42
  TRACK 16 AUDIO
    TITLE "0:"
    INDEX 01 00:17:70
  TRACK 17 AUDIO
    TITLE "30:cjc123_0243"
    INDEX 01 00:18:03
  TRACK 18 AUDIO
    TITLE "0:"
    INDEX 01 00:19:01
  TRACK 19 AUDIO
    TITLE "31:cjc123_0244"
    INDEX 01 00:19:52
  TRACK 20 AUDIO
    TITLE "0:"
    INDEX 01 00:21:58
  TRACK 21 AUDIO
    TITLE "32:cjc123_0245"
    INDEX 01 00:22:23
  TRACK 22 AUDIO
    TITLE "0:"
    INDEX 01 00:24:47
  TRACK 23 AUDIO
    TITLE "28:cjc123_0246"
    INDEX 01 00:25:19
  TRACK 24 AUDIO
    TITLE "0:"
    INDEX 01 00:26:17
  TRACK 25 AUDIO
    TITLE "29:cjc123_0247"
    INDEX 01 00:26:34
  TRACK 26 AUDIO
    TITLE "0:"
    INDEX 01 00:27:45
  TRACK 27 AUDIO
    TITLE "30:cjc123_0248"
    INDEX 01 00:27:53
  TRACK 28 AUDIO
    TITLE "0:"
    INDEX 01 00:28:49
  TRACK 29 AUDIO
    TITLE "31:cjc123_0249"
    INDEX 01 00:29:27
  TRACK 30 AUDIO
    TITLE "0:"
    INDEX 01 00:31:59
  TRACK 31 AUDIO
    TITLE "32:cjc123_0250"
    INDEX 01 00:32:17
  TRACK 32 AUDIO
    TITLE "0:"
    INDEX 01 00:35:08
  TRACK 33 AUDIO
    TITLE "28:cjc123_0251"
    INDEX 01 00:35:53
  TRACK 34 AUDIO
    TITLE "0:"
    INDEX 01 00:36:42
  TRACK 35 AUDIO
    TITLE "29:cjc123_0252"
    INDEX 01 00:36:50
  TRACK 36 AUDIO
    TITLE "0:"
    INDEX 01 00:37:71
  TRACK 37 AUDIO
    TITLE "30:cjc123_0253"
    INDEX 01 00:38:04
  TRACK 38 AUDIO
    TITLE "0:"
    INDEX 01 00:38:71
  TRACK 39 AUDIO
    TITLE "31:cjc123_0254"
    INDEX 01 00:39:45
  TRACK 40 AUDIO
    TITLE "0:"
    INDEX 01 00:41:65
  TRACK 41 AUDIO
    TITLE "32:cjc123_0255"
    INDEX 01 00:42:31
  TRACK 42 AUDIO
    TITLE "0:"
    INDEX 01 00:44:71
  TRACK 43 AUDIO
    TITLE "28:cjc123_0256"
    INDEX 01 00:45:39
  TRACK 44 AUDIO
    TITLE "0:"
    INDEX 01 00:46:37
  TRACK 45 AUDIO
    TITLE "29:cjc123_0257"
    INDEX 01 00:46:58
  TRACK 46 AUDIO
    TITLE "0:"
    INDEX 01 00:48:26
  TRACK 47 AUDIO
    TITLE "30:cjc123_0258"
    INDEX 01 00:48:38
  TRACK 48 AUDIO
    TITLE "0:"
    INDEX 01 00:49:31
  TRACK 49 AUDIO
    TITLE "31:cjc123_0259"
    INDEX 01 00:50:03
  TRACK 50 AUDIO
    TITLE "0:"
    INDEX 01 00:52:65
  TRACK 51 AUDIO
    TITLE "32:cjc123_0260"
    INDEX 01 00:53:17
  TRACK 52 AUDIO
    TITLE "0:"
    INDEX 01 00:55:65
  TRACK 53 AUDIO
    TITLE "28:cjc123_0261"
    INDEX 01 00:56:33
  TRACK 54 AUDIO
    TITLE "0:"
    INDEX 01 00:57:41
  TRACK 55 AUDIO
    TITLE "29:cjc123_0262"
    INDEX 01 00:57:62
  TRACK 56 AUDIO
    TITLE "0:"
    INDEX 01 00:59:02
  TRACK 57 AUDIO
    TITLE "30:cjc123_0263"
    INDEX 01 00:59:10
  TRACK 58 AUDIO
    TITLE "0:"
    INDEX 01 01:00:21
  TRACK 59 AUDIO
    TITLE "31:cjc123_0264"
    INDEX 01 01:00:70
  TRACK 60 AUDIO
    TITLE "0:"
    INDEX 01 01:03:43
  TRACK 61 AUDIO
    TITLE "32:cjc123_0265"
    INDEX 01 01:04:01
  TRACK 62 AUDIO
    TITLE "0:"
    INDEX 01 01:06:51
  TRACK 63 AUDIO
    TITLE "28:cjc123_0266"
    INDEX 01 01:07:25
  TRACK 64 AUDIO
    TITLE "0:"
    INDEX 01 01:08:23
  TRACK 65 AUDIO
    TITLE "29:cjc123_0267"
    INDEX 01 01:08:44
  TRACK 66 AUDIO
    TITLE "0:"
    INDEX 01 01:09:46
  TRACK 67 AUDIO
    TITLE "30:cjc123_0268"
    INDEX 01 01:09:57
  TRACK 68 AUDIO
    TITLE "0:"
    INDEX 01 01:10:49
  TRACK 69 AUDIO
    TITLE "31:cjc123_0269"
    INDEX 01 01:11:25
  TRACK 70 AUDIO
    TITLE "0:"
    INDEX 01 01:14:53
  TRACK 71 AUDIO
    TITLE "32:cjc123_0270"
    INDEX 01 01:15:13
  TRACK 72 AUDIO
    TITLE "0:"
    INDEX 01 01:19:07
  TRACK 73 AUDIO
    TITLE "28:cjc123_0271"
    INDEX 01 01:19:60
  TRACK 74 AUDIO
    TITLE "0:"
    INDEX 01 01:20:49
  TRACK 75 AUDIO
    TITLE "29:cjc123_0272"
    INDEX 01 01:20:61
  TRACK 76 AUDIO
    TITLE "0:"
    INDEX 01 01:22:05
  TRACK 77 AUDIO
    TITLE "30:cjc123_0273"
    INDEX 01 01:22:13
  TRACK 78 AUDIO
    TITLE "0:"
    INDEX 01 01:23:05
  TRACK 79 AUDIO
    TITLE "31:cjc123_0274"
    INDEX 01 01:23:52
  TRACK 80 AUDIO
    TITLE "0:"
    INDEX 01 01:26:50
  TRACK 81 AUDIO
    TITLE "32:cjc123_0275"
    INDEX 01 01:27:04
  TRACK 82 AUDIO
    TITLE "0:"
    INDEX 01 01:30:01
  TRACK 83 AUDIO
    TITLE "28:cjc123_0276"
    INDEX 01 01:30:44
  TRACK 84 AUDIO
    TITLE "0:"
    INDEX 01 01:31:39
  TRACK 85 AUDIO
    TITLE "29:cjc123_0277"
    INDEX 01 01:31:53
  TRACK 86 AUDIO
    TITLE "0:"
    INDEX 01 01:33:13
  TRACK 87 AUDIO
    TITLE "30:cjc123_0278"
    INDEX 01 01:33:25
  TRACK 88 AUDIO
    TITLE "0:"
    INDEX 01 01:34:22
  TRACK 89 AUDIO
    TITLE "31:cjc123_0279"
    INDEX 01 01:35:00
  TRACK 90 AUDIO
    TITLE "0:"
    INDEX 01 01:37:26
  TRACK 91 AUDIO
    TITLE "32:cjc123_0280"
    INDEX 01 01:37:60
  TRACK 92 AUDIO
    TITLE "0:"
    INDEX 01 01:40:25
  TRACK 93 AUDIO
    TITLE "28:cjc123_0281"
    INDEX 01 01:40:74
  TRACK 94 AUDIO
    TITLE "0:"
    INDEX 01 01:41:71
  TRACK 95 AUDIO
    TITLE "29:cjc123_0282"
    INDEX 01 01:42:10
  TRACK 96 AUDIO
    TITLE "0:"
    INDEX 01 01:43:31
  TRACK 97 AUDIO
    TITLE "30:cjc123_0283"
    INDEX 01 01:43:43
  TRACK 98 AUDIO
    TITLE "0:"
    INDEX 01 01:44:40
  TRACK 99 AUDIO
    TITLE "31:cjc123_0284"
    INDEX 01 01:45:12
  TRACK 100 AUDIO
    TITLE "0:"
    INDEX 01 01:47:48
  TRACK 101 AUDIO
    TITLE "32:cjc123_0285"
    INDEX 01 01:48:09
  TRACK 102 AUDIO
    TITLE "0:"
    INDEX 01 01:51:17
  TRACK 103 AUDIO
    TITLE "28:cjc123_0286"
    INDEX 01 01:51:64
  TRACK 104 AUDIO
    TITLE "0:"
    INDEX 01 01:52:65
  TRACK 105 AUDIO
    TITLE "29:cjc123_0287"
    INDEX 01 01:53:00
  TRACK 106 AUDIO
    TITLE "0:"
    INDEX 01 01:54:03
  TRACK 107 AUDIO
    TITLE "30:cjc123_0288"
    INDEX 01 01:54:11
  TRACK 108 AUDIO
    TITLE "0:"
    INDEX 01 01:55:07
  TRACK 109 AUDIO
    TITLE "31:cjc123_0289"
    INDEX 01 01:55:58
  TRACK 110 AUDIO
    TITLE "0:"
    INDEX 01 01:58:62
  TRACK 111 AUDIO
    TITLE "32:cjc123_0290"
    INDEX 01 01:59:20
  TRACK 112 AUDIO
    TITLE "0:"
    INDEX 01 02:02:73
  TRACK 113 AUDIO
    TITLE "28:cjc123_0291"
    INDEX 01 02:03:53
  TRACK 114 AUDIO
    TITLE "0:"
    INDEX 01 02:04:31
  TRACK 115 AUDIO
    TITLE "29:cjc123_0292"
    INDEX 01 02:04:57
  TRACK 116 AUDIO
    TITLE "0:"
    INDEX 01 02:06:20
  TRACK 117 AUDIO
    TITLE "30:cjc123_0293"
    INDEX 01 02:06:32
  TRACK 118 AUDIO
    TITLE "0:"
    INDEX 01 02:07:33
  TRACK 119 AUDIO
    TITLE "31:cjc123_0294"
    INDEX 01 02:08:09
  TRACK 120 AUDIO
    TITLE "0:"
    INDEX 01 02:11:12
  TRACK 121 AUDIO
    TITLE "32:cjc123_0295"
    INDEX 01 02:11:45
  TRACK 122 AUDIO
    TITLE "0:"
    INDEX 01 02:14:53
  TRACK 123 AUDIO
    TITLE "28:cjc123_0296"
    INDEX 01 02:15:23
  TRACK 124 AUDIO
    TITLE "0:"
    INDEX 01 02:16:11
  TRACK 125 AUDIO
    TITLE "29:cjc123_0297"
    INDEX 01 02:16:24
  TRACK 126 AUDIO
    TITLE "0:"
    INDEX 01 02:17:38
  TRACK 127 AUDIO
    TITLE "30:cjc123_0298"
    INDEX 01 02:17:49
  TRACK 128 AUDIO
    TITLE "0:"
    INDEX 01 02:18:35
  TRACK 129 AUDIO
    TITLE "31:cjc123_0299"
    INDEX 01 02:19:15
  TRACK 130 AUDIO
    TITLE "0:"
    INDEX 01 02:21:49
  TRACK 131 AUDIO
    TITLE "32:cjc123_0300"
    INDEX 01 02:22:13
  TRACK 132 AUDIO
    TITLE "0:"
    INDEX 01 02:25:27
  TRACK 133 AUDIO
    TITLE "28:cjc123_0301"
    INDEX 01 02:26:01
  TRACK 134 AUDIO
    TITLE "0:"
    INDEX 01 02:26:68
  TRACK 135 AUDIO
    TITLE "29:cjc123_0302"
    INDEX 01 02:27:13
  TRACK 136 AUDIO
    TITLE "0:"
    INDEX 01 02:28:32
  TRACK 137 AUDIO
    TITLE "30:cjc123_0303"
    INDEX 01 02:28:41
  TRACK 138 AUDIO
    TITLE "0:"
    INDEX 01 02:29:31
  TRACK 139 AUDIO
    TITLE "31:cjc123_0304"
    INDEX 01 02:30:19
  TRACK 140 AUDIO
    TITLE "0:"
    INDEX 01 02:32:37
  TRACK 141 AUDIO
    TITLE "32:cjc123_0305"
    INDEX 01 02:33:07
  TRACK 142 AUDIO
    TITLE "0:"
    INDEX 01 02:35:59
  TRACK 143 AUDIO
    TITLE "28:cjc123_0306"
    INDEX 01 02:36:39
  TRACK 144 AUDIO
    TITLE "0:"
    INDEX 01 02:37:42
  TRACK 145 AUDIO
    TITLE "29:cjc123_0307"
    INDEX 01 02:37:56
  TRACK 146 AUDIO
    TITLE "0:"
    INDEX 01 02:39:14
  TRACK 147 AUDIO
    TITLE "30:cjc123_0308"
    INDEX 01 02:39:27
  TRACK 148 AUDIO
    TITLE "0:"
    INDEX 01 02:40:23
  TRACK 149 AUDIO
    TITLE "31:cjc123_0309"
    INDEX 01 02:41:03
  TRACK 150 AUDIO
    TITLE "0:"
    INDEX 01 02:44:01
  TRACK 151 AUDIO
    TITLE "32:cjc123_0310"
    INDEX 01 02:44:33
  TRACK 152 AUDIO
    TITLE "0:"
    INDEX 01 02:47:47
